<svg id="aa1506c7-ce06-441a-9917-51177d582712" data-name="Layer 1" xmlns="http://www.w3.org/2000/svg" width="975.1868" height="768.52369" viewBox="0 0 975.1868 768.52369"><title>omega</title>

<path d="M645.015,164.92488c-5.68507,21.01543-25.15771,34.03081-25.15771,34.03081s-10.25533-21.05736-4.57026-42.07279,25.15771-34.03081,25.15771-34.03081S650.7,143.90945,645.015,164.92488Z" transform="translate(-112.4066 -65.73816)" fill="#f50057"/>

<path d="M593.29668,164.92488c5.68507,21.01543,25.15772,34.03081,25.15772,34.03081s10.25532-21.05736,4.57025-42.07279-25.15771-34.03081-25.15771-34.03081S587.61162,143.90945,593.29668,164.92488Z" transform="translate(-112.4066 -65.73816)" fill="#f50057"/>

<path d="M601.65049,160.40844c15.59991,15.18588,17.50533,38.53012,17.50533,38.53012s-23.387-1.27695-38.98695-16.46283-17.50533-38.53012-17.50533-38.53012S586.05058,145.22255,601.65049,160.40844Z" transform="translate(-112.4066 -65.73816)" fill="#3f3d56"/>

<path d="M636.66114,160.40844c-15.59991,15.18588-17.50532,38.53012-17.50532,38.53012s23.387-1.27695,38.98694-16.46283,17.50533-38.53012,17.50533-38.53012S652.26105,145.22255,636.66114,160.40844Z" transform="translate(-112.4066 -65.73816)" fill="#3f3d56"/>

<path d="M530.22625,552.98925c16.29982,14.43206,19.3058,37.66023,19.3058,37.66023s-23.42125-.1708-39.72107-14.60285-19.3058-37.66023-19.3058-37.66023S513.92643,538.5572,530.22625,552.98925Z" transform="translate(-112.4066 -65.73816)" fill="#f50057"/>

<path d="M494.80948,425.55226c8.95737,19.84273,30.2533,29.593,30.2533,29.593s6.77316-22.42116-2.18422-42.26389-30.2533-29.593-30.2533-29.593S485.8521,405.70954,494.80948,425.55226Z" transform="translate(-112.4066 -65.73816)" fill="#f50057"/>

<path d="M502.338,419.76382c17.818,12.50946,23.41457,35.25287,23.41457,35.25287s-23.29216,2.46156-41.11018-10.0479-23.41456-35.25287-23.41456-35.25287S484.52,407.25436,502.338,419.76382Z" transform="translate(-112.4066 -65.73816)" fill="#3f3d56"/>

<path d="M560.52879,474.02249c-15.59991,15.18588-17.50532,38.53012-17.50532,38.53012s23.387-1.27695,38.98694-16.46283,17.50533-38.53012,17.50533-38.53012S576.1287,458.8366,560.52879,474.02249Z" transform="translate(-112.4066 -65.73816)" fill="#3f3d56"/>

<path d="M552.45553,641.42975c-20.6795,6.80638-32.62946,26.95042-32.62946,26.95042s21.57812,9.10872,42.25761,2.30235,32.62946-26.95042,32.62946-26.95042S573.135,634.62338,552.45553,641.42975Z" transform="translate(-112.4066 -65.73816)" fill="#3f3d56"/>

<path d="M398.74561,774.27148l-1.98829-.21679A53.93933,53.93933,0,0,1,408.855,745.08594c10.09424-11.83106,24.97656-17.76465,39.36816-23.502,2.61963-1.04492,5.231-2.08593,7.80274-3.15722a161.54851,161.54851,0,0,0,29.94775-15.91016c34.63184-23.93164,57.4375-67.53711,61.00489-116.64551,2.84179-39.123-5.5669-82.60546-25.707-132.93164l1.85645-.74218c20.25586,50.61328,28.71,94.38574,25.8457,133.81836-3.61133,49.707-26.73779,93.874-61.86328,118.1455a163.36838,163.36838,0,0,1-30.31494,16.11133c-2.58154,1.07617-5.20215,2.12109-7.83154,3.16895-14.166,5.64843-28.81446,11.48828-38.58741,22.94336A51.91628,51.91628,0,0,0,398.74561,774.27148Z" transform="translate(-112.4066 -65.73816)" fill="#3f3d56"/><circle cx="348.86765" cy="312.5513" r="19" fill="#3f3d56"/>

<path d="M658.22625,443.98925c16.29982,14.43206,19.3058,37.66023,19.3058,37.66023s-23.42125-.1708-39.72107-14.60285-19.3058-37.66023-19.3058-37.66023S641.92643,429.5572,658.22625,443.98925Z" transform="translate(-112.4066 -65.73816)" fill="#f50057"/>

<path d="M622.80948,316.55226c8.95737,19.84273,30.2533,29.593,30.2533,29.593s6.77316-22.42116-2.18422-42.26389-30.2533-29.593-30.2533-29.593S613.8521,296.70954,622.80948,316.55226Z" transform="translate(-112.4066 -65.73816)" fill="#f50057"/>

<path d="M630.338,310.76382c17.818,12.50946,23.41457,35.25287,23.41457,35.25287s-23.29216,2.46156-41.11018-10.0479-23.41456-35.25287-23.41456-35.25287S612.52,298.25436,630.338,310.76382Z" transform="translate(-112.4066 -65.73816)" fill="#3f3d56"/>

<path d="M688.52879,365.02249c-15.59991,15.18588-17.50532,38.53012-17.50532,38.53012s23.387-1.27695,38.98694-16.46283,17.50533-38.53012,17.50533-38.53012S704.1287,349.8366,688.52879,365.02249Z" transform="translate(-112.4066 -65.73816)" fill="#3f3d56"/>

<path d="M680.45553,532.42975c-20.6795,6.80638-32.62946,26.95042-32.62946,26.95042s21.57812,9.10872,42.25761,2.30235,32.62946-26.95042,32.62946-26.95042S701.135,525.62338,680.45553,532.42975Z" transform="translate(-112.4066 -65.73816)" fill="#3f3d56"/>

<path d="M526.74561,665.27148l-1.98829-.21679A53.93933,53.93933,0,0,1,536.855,636.08594c10.09424-11.83106,24.97656-17.76367,39.36816-23.502,2.61963-1.04492,5.231-2.08593,7.80274-3.15722a161.46985,161.46985,0,0,0,29.94775-15.91016c34.63184-23.93164,57.43653-67.53711,61.00489-116.64551,2.84179-39.12353-5.56739-82.60546-25.708-132.93066l1.85742-.74316c20.25586,50.61328,28.71,94.38574,25.84473,133.81836-3.61036,49.707-26.73731,93.873-61.86231,118.1455a163.33308,163.33308,0,0,1-30.31494,16.11133c-2.58154,1.07617-5.20215,2.12109-7.83154,3.16895-14.166,5.64843-28.81446,11.48828-38.58741,22.94336A51.91628,51.91628,0,0,0,526.74561,665.27148Z" transform="translate(-112.4066 -65.73816)" fill="#3f3d56"/><circle cx="476.86765" cy="203.5513" r="19" fill="#3f3d56"/>

<path d="M296.978,493.33608c21.76581.4669,39.08024,16.24012,39.08024,16.24012s-17.9749,15.01621-39.74071,14.54931-39.08024-16.24012-39.08024-16.24012S275.21218,492.86917,296.978,493.33608Z" transform="translate(-112.4066 -65.73816)" fill="#f50057"/>

<path d="M187.55064,419.03809c19.66446,9.34222,42.21331,3.00712,42.21331,3.00712s-9.33354-21.48182-28.998-30.824-42.21331-3.00712-42.21331-3.00712S167.88617,409.69587,187.55064,419.03809Z" transform="translate(-112.4066 -65.73816)" fill="#f50057"/>

<path d="M189.54958,409.75431C211.23,407.773,230.20692,421.5011,230.20692,421.5011s-16.17409,16.94056-37.85455,18.92192S151.695,428.67623,151.695,428.67623,167.86912,411.73567,189.54958,409.75431Z" transform="translate(-112.4066 -65.73816)" fill="#3f3d56"/>

<path d="M269.02338,413.50792c-2.07806,21.67141,11.56528,40.70935,11.56528,40.70935s17.01256-16.09836,19.09063-37.76977S288.114,375.73816,288.114,375.73816,271.10145,391.83651,269.02338,413.50792Z" transform="translate(-112.4066 -65.73816)" fill="#3f3d56"/>

<path d="M371.12764,546.418c-11.37152,18.56494-7.45917,41.65774-7.45917,41.65774s22.34921-7.00691,33.72072-25.57185,7.45917-41.65774,7.45917-41.65774S382.49915,527.85307,371.12764,546.418Z" transform="translate(-112.4066 -65.73816)" fill="#3f3d56"/>

<path d="M338.1377,748.2666a53.936,53.936,0,0,1-9.50635-29.918c.04834-15.55468,7.56347-29.70508,14.83105-43.38965,1.32227-2.49023,2.64014-4.97168,3.90821-7.45117a161.42813,161.42813,0,0,0,12.55273-31.50195c10.939-40.65137.13428-88.65918-28.90332-128.42285-23.13232-31.67871-57.66553-59.40576-105.57373-84.76758l.93555-1.76758c48.18261,25.50684,82.93847,53.42676,106.25341,85.35547,29.39112,40.24805,40.31446,88.8916,29.21973,130.12207a163.41153,163.41153,0,0,1-12.7041,31.89258c-1.27246,2.48926-2.59522,4.97949-3.92236,7.47851-7.15332,13.46973-14.5503,27.39844-14.59717,42.458a51.91945,51.91945,0,0,0,9.16357,28.793Z" transform="translate(-112.4066 -65.73816)" fill="#3f3d56"/><circle cx="19.00039" cy="338.93765" r="19" fill="#3f3d56"/>

<path d="M293.83522,183.33608c-21.76581.4669-39.08024,16.24012-39.08024,16.24012s17.9749,15.01621,39.74071,14.54931,39.08024-16.24012,39.08024-16.24012S315.601,182.86917,293.83522,183.33608Z" transform="translate(-112.4066 -65.73816)" fill="#f50057"/>

<path d="M403.26256,109.03809c-19.66446,9.34222-42.21331,3.00712-42.21331,3.00712s9.33354-21.48182,28.998-30.824S432.26057,78.214,432.26057,78.214,422.927,99.69587,403.26256,109.03809Z" transform="translate(-112.4066 -65.73816)" fill="#f50057"/>

<path d="M401.26362,99.75431c-21.68046-1.98136-40.65735,11.74679-40.65735,11.74679s16.1741,16.94056,37.85456,18.92192,40.65735-11.74679,40.65735-11.74679S422.94408,101.73567,401.26362,99.75431Z" transform="translate(-112.4066 -65.73816)" fill="#3f3d56"/>

<path d="M321.78982,103.50792c2.07806,21.67141-11.56529,40.70935-11.56529,40.70935S293.212,128.11891,291.13391,106.4475s11.56528-40.70934,11.56528-40.70934S319.71175,81.83651,321.78982,103.50792Z" transform="translate(-112.4066 -65.73816)" fill="#3f3d56"/>

<path d="M219.68556,236.418c11.37152,18.56494,7.45917,41.65774,7.45917,41.65774s-22.34921-7.00691-33.72073-25.57185-7.45916-41.65774-7.45916-41.65774S208.31405,217.85307,219.68556,236.418Z" transform="translate(-112.4066 -65.73816)" fill="#3f3d56"/>

<path d="M252.67578,438.2666l-1.65723-1.12012a51.91878,51.91878,0,0,0,9.16309-28.79248c-.04639-15.05761-7.44238-28.98486-14.59521-42.45361-1.32764-2.5-2.65088-4.99219-3.92383-7.48242a163.33418,163.33418,0,0,1-12.7041-31.89258c-11.09473-41.23-.17139-89.87353,29.21923-130.12207,23.31543-31.92871,58.07178-59.84863,106.25391-85.35547l.93555,1.76758C317.45947,138.17676,282.92578,165.90479,259.793,197.583c-29.03711,39.76367-39.8418,87.77246-28.90283,128.42285a161.39429,161.39429,0,0,0,12.55273,31.502c1.269,2.481,2.5874,4.96338,3.91016,7.45459,7.2666,13.6836,14.78076,27.833,14.82861,43.38574A53.937,53.937,0,0,1,252.67578,438.2666Z" transform="translate(-112.4066 -65.73816)" fill="#3f3d56"/>

<circle cx="346.99961" cy="28.93765" r="19" fill="#3f3d56"/>




</svg>