
<svg id="bfd7ed38-e2c2-4ce4-aa7c-70bac4bc4918" data-name="Layer 1" xmlns="http://www.w3.org/2000/svg" width="807.85972" height="581.58175" viewBox="340 0 807.85972 581.58175">
    <circle cx="567.70201" cy="52.23483" r="1.58335" fill="#f2f2f2"/>
    <circle cx="357.64502" cy="119.80078" r="2.7239" fill="#ccc"/>
    <circle cx="351.83942" cy="226.41262" r="5.38101" fill="#ccc"/>
    <circle cx="674.84163" cy="61.73489" r="3.58631" fill="#ccc"/>
    <circle cx="802.03694" cy="210.57918" r="5.82278" fill="#ccc"/>
    <circle cx="756.50568" cy="117.57999" r="2.49824" fill="#ccc"/>
    <circle cx="453.17346" cy="85.48506" r="3.89733" fill="#ccc"/>
    <circle cx="747.76185" cy="198.77239" r="2.49824" fill="#ccc"/>
    <circle cx="364.50618" cy="302.41316" r="3.10939" fill="#ccc"/>
    <circle cx="427.31216" cy="345.69122" r="3.36729" fill="#ccc"/>
    <polygon points="525.2 6.645 518.555 6.645 518.555 0 514.99 0 514.99 6.645 508.342 6.645 508.342 10.213 514.99 10.213 514.99 16.858 518.555 16.858 518.555 10.213 525.2 10.213 525.2 6.645" fill="#ccc"/>
    <polygon points="679.342 366.201 675.168 366.201 675.168 362.029 672.93 362.029 672.93 366.201 668.758 366.201 668.758 368.44 672.93 368.44 672.93 372.612 675.168 372.612 675.168 368.44 679.342 368.44 679.342 366.201" fill="#ccc"/>
    <polygon points="775.646 344.844 772.527 344.844 772.527 341.725 770.852 341.725 770.852 344.844 767.733 344.844 767.733 346.519 770.852 346.519 770.852 349.638 772.527 349.638 772.527 346.519 775.646 346.519 775.646 344.844" fill="#ccc"/>
</svg>